# xmcd CD database file
#
# Track frame offsets:
#	150
#	28579
#	53900
#	67643
#	102379
#	127068
#	151302
#	160165
#	175278
#	200010
#	226941
#	244248
#	264862
#	285199
#	312134
#
# Disc length: 4602 seconds
#
# Revision: 0
# Processed by: cddbd v1.5.2PL0 Copyright (c) Steve Scherf et al.
# Submitted via: CDex 1.70beta2
#
DISCID=c211f80f
DTITLE=Various Artist - 101 Jazz Diamonds CD5
DYEAR=2009
DGENRE=Jazz
TTITLE0=Branford Marsalis - Gutbucket Steepy
TTITLE1=Herbie Hancock - 'Round Midnight
TTITLE2=Paul Desmond - Song From M*A*S*H (Suicide Is Painless)
TTITLE3=Thelonious Monk - Well You Needn't
TTITLE4=Ray Barretto - La Cuna
TTITLE5=Al Dimeola - Dark Eye Tango
TTITLE6=Al Hirt - Java
TTITLE7=Pete Jolly - One Morning In May
TTITLE8=Toots Thielemans - Bluesette
TTITLE9=Mark Isham - That Beautiful Sadness
TTITLE10=Greg Adams - Smooth Operator
TTITLE11=Kirk Whalum - Living For The City
TTITLE12=James Carter - Out Of Nowhere
TTITLE13=Charlie Rouse - Lil Rousin'
TTITLE14=Charles Mingus - Better Git It In Your Soul
EXTD=YEAR: 2009
EXTT0=
EXTT1=
EXTT2=
EXTT3=
EXTT4=
EXTT5=
EXTT6=
EXTT7=
EXTT8=
EXTT9=
EXTT10=
EXTT11=
EXTT12=
EXTT13=
EXTT14=
PLAYORDER=
